<svg width="18" height="19" viewBox="0 0 18 19" fill="none" xmlns="http://www.w3.org/2000/svg">
<path d="M0.114394 9.14989C0.275199 8.92992 4.10664 3.76373 9.00009 3.76373C13.8935 3.76373 17.7251 8.92992 17.8858 9.14968C18.0381 9.35837 18.0381 9.64141 17.8858 9.8501C17.7251 10.0701 13.8935 15.2363 9.00009 15.2363C4.10664 15.2363 0.275199 10.07 0.114394 9.85027C-0.0381142 9.64162 -0.0381142 9.35837 0.114394 9.14989ZM9.00009 14.0494C12.6046 14.0494 15.7265 10.6205 16.6507 9.49959C15.7277 8.37765 12.6124 4.95054 9.00009 4.95054C5.39572 4.95054 2.27401 8.37884 1.34947 9.5004C2.27243 10.6223 5.38781 14.0494 9.00009 14.0494Z" fill="#212121"/>
<circle cx="9" cy="9.5" r="3" fill="#212121"/>
</svg>
